<?xml version="1.0" encoding="utf-8"?>
<!-- Generator: Adobe Illustrator 19.0.0, SVG Export Plug-In . SVG Version: 6.00 Build 0)  -->
<svg version="1.1" id="Layer_1" xmlns="http://www.w3.org/2000/svg" xmlns:xlink="http://www.w3.org/1999/xlink" x="0px" y="0px"
	 viewBox="0 0 500 500" style="enable-background:new 0 0 500 500;" xml:space="preserve">
<style type="text/css">
	.st0{fill:#FFFFFF;}
</style>
<g id="XMLID_1_">
	<path id="XMLID_2_" d="M293.5,192.5c-12.3,0.6-23.4,4.8-32.5,8.8c-2.6,1.1-7,4.4-9.4,4.5c-2.9,0.1-8.1-2.8-12-3.9
		c-17.2-5-43.4-11.4-56.8-1c-16.8-2.4-32.4,1.7-45.1,5.5c-0.7-10.1-10.1-16.1-21.1-13c-7.3,2.1-13.4,6.2-20.8,9.1
		c-14.5,5.6-29.2,17.5-28.3,36.4c0.4,8.9,4.3,16.1,6.8,22.4c2.6,6.6,5.4,11.9,9.7,19.5c-1.2,2.2-2.3,3.7-2.6,6.2
		c-2.8,21.1,25.4,21.8,40.3,15.6c12.8-5.4,26.3-14.9,35.4-21.7c-7.3,31.2,41.8,32.6,54.2,16.9c17.5,13.1,55.3,11.6,74,0.6
		c17.3,13.9,55.6,8.6,78.9,3.2c12-2.8,22.7-5,30.5-10.7c8-5.8,13.1-14.8,15.2-26.3c-1.7-4.4-4.5-7.6-7.1-11c1.3-2.8,1.7-7.9,1-11.7
		c10.2-7.3,18.7-18.6,26.3-28.2c0.9-1.2,2.7-2.7,2.3-4.2c-34.8-5.4-68.4-16.2-108.7-14.3c-2.5,0.1-5.4,0.9-7.8,0.6
		c-3.5-0.3-6.5-2-9.7-2.6C301.9,192.5,297.6,192.3,293.5,192.5L293.5,192.5z"/>
	<path id="XMLID_3_" class="st0" d="M295.7,205.3c-15.8,0.3-30.5,8.2-42.1,14.5c-12.4,6.8-23.4,14.8-31.2,22.7
		c2.8-4.8,5.8-9.5,9.1-14c3.4-4.5,7.1-8.6,10.1-12.7c-6.5-1.7-13-3.5-19.5-4.9c-9.3-2-22.2-5.2-29.9-1c-2.2,1.2-4,4.3-6.2,4.5
		c-1.8,0.2-4.7-1-6.8-1.3c-7.9-0.9-15.2-0.2-22.4,1.3c-6.7,1.3-20.9,3.7-22.7,10.1c-1.2,4.1,1.4,8,1,12c-0.4,4-4.2,9.2-6.2,12.3
		c-2.4,3.9-4.8,7.3-8.8,9.1c-2.4-12.1,0.2-22.8,2.3-33.1c1.3-6.3,3.8-12.8,1.6-19.2c-6.2-0.9-11.4,4-17.5,6.5
		c-11.5,4.6-24.3,8.8-26,22.1c-0.9,7.5,1.9,12.2,3.9,17.5c4.3,11.4,9.6,21,15.9,29.9c-1.7,3.2-5.8,4-6.2,8.4
		c1.8,2.6,5.7,2.9,9.4,2.9c10.9,0,19.8-5.5,27.9-10.1c17.6-9.9,29.5-25.2,41.9-39.6c2.2-2.5,4-5.6,6.8-7.1
		c2.8,12.8-2.6,19.7-6.5,30.2c-1.5,4-6.2,16.7-3.9,22.7c2.5,6.6,23.9,6.9,29.5,2.6c2.9-2.2,4-7,5.5-10.1c2-3.9,3.6-7.3,5.2-10.7
		c0.1,14.2,10.7,18.4,22.1,21.4c24.3,6.4,48.8-5,62-13c-1.7,10.5,2.4,11.6,10.7,13.3c21.4,4.4,43-0.7,60.4-4.9
		c16-3.8,28.8-6.6,31.2-22.4c-2.6-2.2-8.9-1.9-13.3-1.3c-12.9,1.9-25.3,8.4-42.5,7.1c-3.1-0.2-9.9-1.3-10.4-3.2
		c-0.8-3,4.6-5.1,9.1-5.8c12.9-2.2,31.5,0,41.9-3.9c5-1.9,11-7.3,10.4-13.3c-0.4-4.1-5.7-6.2-10.7-6.5c-14.2-0.9-24.4,7.4-39.3,4.5
		c1.9-2.4,2.2-6.2,4.5-8.1c10.9-0.2,21.5,1.9,31.8,1.3c14.3-0.9,22.4-6.9,29.2-14.9c0.7-0.9,2.5-1.8,1.9-3.2
		c-24.9-3.8-58.9-13.8-89.6-10.1c-4,0.5-6.8,4.6-9.4,6.3l0-0.1c0.5-2.2,1.4-4,1.6-6.5C306.3,205.9,300.9,205.2,295.7,205.3
		L295.7,205.3z M307.8,221.1c3,3.5,9.7,3.3,13.6,5.8c-5.3,1.4-12.1,1.4-16.9,3.2C305.7,227.2,306.7,224.1,307.8,221.1z M270.1,233.1
		c-1.6,7.3-4.9,15.6-6.8,23.7c10.3,0.1,21.2-2,31.8-2.6c1.4-1.9,2.1-4.6,2.9-7.1c2.1,3,3.6,8.6,1.6,13c-16.1-0.2-27.7,13-43.5,13
		c-7.1,0-13.1-4.1-9.7-12C251.2,249.8,262.9,242,270.1,233.1z"/>
</g>
</svg>
